<?xml version="1.0" standalone="no"?> 
<!DOCTYPE svg PUBLIC "-//W3C//DTD SVG 1.1//EN" "http://www.w3.org/Graphics/SVG/1.1/DTD/svg11.dtd">

<svg viewBox="93.5818585470191 5.000000000000071 499.0995270973249 444.99999999999994 " width="499.1" height="445.0"  version="1.1" xmlns="http://www.w3.org/2000/svg">
 <g stroke="rgb(0,0,0)" fill="rgba(255,255,255,0)" >
<circle cx="200.0" cy="90.0" r="10.0" />

<line x1="200.0" y1="90.0" x2="155.25896926000001" y2="150.49000034" />

<circle cx="200.0" cy="90.0" r="10.0" />

<line x1="200.0" y1="90.0" x2="264.65637775" y2="138.99186938" />

<circle cx="155.259" cy="150.49" r="10.0" />

<line x1="155.258969261662" y1="150.4900003406861" x2="116.43761074166201" y2="179.58577760068607" />

<circle cx="155.259" cy="150.49" r="10.0" />

<line x1="155.258969261662" y1="150.4900003406861" x2="200.00000000166202" y2="210.00000000068607" />

<circle cx="155.259" cy="150.49" r="10.0" />

<line x1="155.258969261662" y1="150.4900003406861" x2="283.56238926166196" y2="179.58577760068607" />

<circle cx="264.656" cy="138.992" r="10.0" />

<circle cx="328.025" cy="102.574" r="10.0" />

<line x1="264.656377752172" y1="138.9918693812442" x2="328.02500789217197" y2="102.5742631012442" />

<circle cx="264.656" cy="138.992" r="10.0" />

<circle cx="312.583" cy="15.0" r="10.0" />

<line x1="264.656377752172" y1="138.9918693812442" x2="312.583302492172" y2="15.000000001244196" />

<circle cx="116.438" cy="179.586" r="10.0" />

<circle cx="103.582" cy="204.907" r="10.0" />

<line x1="116.4376107407499" y1="179.58577760546711" x2="103.5818585507499" y2="204.9066664654671" />

<circle cx="200.0" cy="210.0" r="10.0" />

<circle cx="200.0" cy="240.0" r="10.0" />

<line x1="200.0" y1="210.0" x2="200.0" y2="240.0" />

<circle cx="283.562" cy="179.586" r="10.0" />

<circle cx="296.418" cy="204.907" r="10.0" />

<line x1="283.56238925925015" y1="179.5857776054672" x2="296.41814144925013" y2="204.9066664654672" />

</g></svg>